<?xml version="1.0" encoding="UTF-8"?>
<svg id="Capa_1" xmlns="http://www.w3.org/2000/svg" version="1.1" viewBox="0 0 800 159.2">
  <!-- Generator: Adobe Illustrator 29.8.2, SVG Export Plug-In . SVG Version: 2.1.1 Build 3)  -->
  <polygon points="98.7 60.8 79.8 0 61 60.8 0 60.8 49.3 98.4 30.5 159.2 79.8 121.6 129.2 159.2 110.3 98.4 159.7 60.8 98.7 60.8"/>
  <polygon points="258.8 60.8 239.9 0 221.1 60.8 160.1 60.8 209.4 98.4 190.6 159.2 239.9 121.6 289.3 159.2 270.4 98.4 319.7 60.8 258.8 60.8"/>
  <polygon points="418.8 60.8 400 0 381.2 60.8 320.2 60.8 369.5 98.4 350.7 159.2 400 121.6 449.3 159.2 430.5 98.4 479.8 60.8 418.8 60.8"/>
  <polygon points="578.9 60.8 560.1 0 541.2 60.8 480.3 60.8 529.6 98.4 510.7 159.2 560.1 121.6 609.4 159.2 590.6 98.4 639.9 60.8 578.9 60.8"/>
  <polygon points="720.2 0 701.3 60.8 640.3 60.8 689.7 98.4 670.8 159.2 720.2 121.6 769.5 159.2 750.7 98.4 800 60.8 739 60.8 720.2 0"/>
</svg>