<?xml version="1.0" encoding="iso-8859-1"?>
<!-- Uploaded to: SVG Repo, www.svgrepo.com, Generator: SVG Repo Mixer Tools -->
<!DOCTYPE svg PUBLIC "-//W3C//DTD SVG 1.1//EN" "http://www.w3.org/Graphics/SVG/1.1/DTD/svg11.dtd">
<svg fill="#fff" version="1.1" id="Capa_1" xmlns="http://www.w3.org/2000/svg" xmlns:xlink="http://www.w3.org/1999/xlink" 
	 width="800px" height="800px" viewBox="0 0 32 32" xml:space="preserve">
<g>
	<path d="M31.999,23.067l-4.768-11.66h2.127V9.758c0,0-4.857-0.258-8.289-1.531c-2.797-1.04-4.174-3.139-5.041-3.18
		C15.062,5,13.234,7.036,9.998,8.228C6.771,9.415,2.133,9.758,2.133,9.758v1.649h2.468L0.013,22.714c0,0-0.518,3.909,5.041,3.909
		c5.56,0,5.7-3.909,5.7-3.909L6.127,11.407h7.217c0.607,0.651,1.464,1.066,2.426,1.066c0.961,0,1.819-0.415,2.428-1.066h7.792
		l-4.73,11.661c0,0-0.21,3.886,5.352,3.886C32.168,26.953,31.999,23.067,31.999,23.067z M0.893,22.714l4.188-10.48v10.48H0.893z
		 M5.646,22.714V12.229l4.211,10.486H5.646z M15.771,10.163c-0.56,0-1.014-0.454-1.014-1.017c0-0.561,0.454-1.015,1.014-1.015
		c0.562,0,1.016,0.454,1.016,1.015C16.785,9.708,16.331,10.163,15.771,10.163z M26.895,12.584l4.209,10.482h-4.209V12.584z
		 M22.139,23.067l4.188-10.478v10.478H22.139z"/>
</g>
</svg>